Normalized EMG Linear Envelopes
nRows=230
nColumns=4

endheader
time	 med_gas_r	  soleus_r	 tib_ant_r	
3.16028	  0.007349	  0.022248	  0.004667	
3.19355	  0.007198	  0.021380	  0.004668	
3.22681	  0.007055	  0.020477	  0.004718	
3.26008	  0.006926	  0.019580	  0.004848	
3.29335	  0.006806	  0.018745	  0.005049	
3.32661	  0.006685	  0.017999	  0.005277	
3.35988	  0.006562	  0.017327	  0.005478	
3.39315	  0.006444	  0.016708	  0.005611	
3.42641	  0.006344	  0.016148	  0.005666	
3.45968	  0.006277	  0.015675	  0.005653	
3.49294	  0.006256	  0.015308	  0.005592	
3.52621	  0.006290	  0.015035	  0.005504	
3.55948	  0.006383	  0.014835	  0.005412	
3.59274	  0.006536	  0.014707	  0.005335	
3.62601	  0.006754	  0.014674	  0.005285	
3.65927	  0.007041	  0.014757	  0.005258	
3.69254	  0.007386	  0.014950	  0.005244	
3.72581	  0.007744	  0.015222	  0.005227	
3.75907	  0.008041	  0.015528	  0.005195	
3.79234	  0.008196	  0.015816	  0.005138	
3.8256	  0.008168	  0.016023	  0.005051	
3.85887	  0.007982	  0.016095	  0.004938	
3.89214	  0.007713	  0.016018	  0.004822	
3.9254	  0.007440	  0.015852	  0.004733	
3.95867	  0.007215	  0.015712	  0.004701	
3.99194	  0.007046	  0.015704	  0.004740	
4.0252	  0.006923	  0.015870	  0.004843	
4.05847	  0.006845	  0.016174	  0.004980	
4.09173	  0.006823	  0.016536	  0.005111	
4.125	  0.006876	  0.016888	  0.005194	
4.15827	  0.007012	  0.017203	  0.005203	
4.19153	  0.007216	  0.017473	  0.005136	
4.2248	  0.007442	  0.017673	  0.005024	
4.25806	  0.007625	  0.017747	  0.004905	
4.29133	  0.007704	  0.017638	  0.004812	
4.3246	  0.007649	  0.017335	  0.004755	
4.35786	  0.007479	  0.016901	  0.004725	
4.39113	  0.007254	  0.016442	  0.004707	
4.4244	  0.007040	  0.016062	  0.004693	
4.45766	  0.006885	  0.015815	  0.004683	
4.49093	  0.006812	  0.015707	  0.004686	
4.52419	  0.006824	  0.015716	  0.004707	
4.55746	  0.006916	  0.015807	  0.004750	
4.59073	  0.007085	  0.015944	  0.004811	
4.62399	  0.007319	  0.016089	  0.004883	
4.65726	  0.007592	  0.016214	  0.004958	
4.69052	  0.007861	  0.016311	  0.005037	
4.72379	  0.008073	  0.016406	  0.005141	
4.75706	  0.008190	  0.016550	  0.005314	
4.79032	  0.008204	  0.016793	  0.005604	
4.82359	  0.008130	  0.017144	  0.006040	
4.85685	  0.007993	  0.017542	  0.006605	
4.89012	  0.007802	  0.017869	  0.007215	
4.92339	  0.007554	  0.017999	  0.007721	
4.95665	  0.007256	  0.017877	  0.007940	
4.98992	  0.006935	  0.017548	  0.007706	
5.02319	  0.006640	  0.017124	  0.006926	
5.05645	  0.006421	  0.016716	  0.005599	
5.08972	  0.006306	  0.016371	  0.003802	
5.12298	  0.006300	  0.016082	  0.001657	
5.15625	  0.006388	  0.015835	 -0.000660	
5.18952	  0.006554	  0.015665	 -0.002864	
5.22278	  0.006785	  0.015679	 -0.004492	
5.25605	  0.007084	  0.016050	 -0.004857	
5.28931	  0.007482	  0.017006	 -0.003042	
5.32258	  0.008055	  0.018858	  0.002118	
5.35585	  0.008940	  0.022042	  0.012035	
5.38911	  0.010307	  0.027134	  0.028239	
5.42238	  0.012301	  0.034729	  0.051930	
5.45565	  0.014968	  0.045214	  0.083282	
5.48891	  0.018194	  0.058518	  0.120899	
5.52218	  0.021720	  0.074010	  0.161967	
5.55544	  0.025208	  0.090589	  0.203195	
5.58871	  0.028349	  0.106934	  0.242014	
5.62198	  0.030961	  0.121865	  0.277188	
5.65524	  0.033042	  0.134718	  0.308518	
5.68851	  0.034757	  0.145567	  0.336064	
5.72177	  0.036362	  0.155086	  0.359631	
5.75504	  0.038100	  0.164108	  0.378869	
5.78831	  0.040118	  0.173246	  0.393679	
5.82157	  0.042446	  0.182842	  0.404412	
5.85484	  0.045019	  0.193080	  0.411659	
5.8881	  0.047688	  0.203874	  0.415899	
5.92137	  0.050235	  0.214514	  0.417375	
5.95464	  0.052405	  0.223576	  0.416319	
5.9879	  0.054011	  0.229442	  0.413308	
6.02117	  0.055020	  0.231132	  0.409398	
6.05444	  0.055544	  0.228698	  0.405918	
6.0877	  0.055732	  0.222933	  0.404112	
6.12097	  0.055684	  0.214925	  0.404896	
6.15423	  0.055472	  0.205968	  0.408779	
6.1875	  0.055220	  0.197693	  0.415750	
6.22077	  0.055112	  0.191826	  0.425108	
6.25403	  0.055286	  0.189472	  0.435414	
6.2873	  0.055739	  0.190511	  0.444804	
6.32056	  0.056335	  0.193723	  0.451586	
6.35383	  0.056906	  0.197599	  0.454835	
6.3871	  0.057331	  0.201168	  0.454748	
6.42036	  0.057569	  0.204280	  0.452601	
6.45363	  0.057652	  0.207309	  0.450243	
6.4869	  0.057676	  0.210630	  0.449214	
6.52016	  0.057757	  0.214203	  0.449888	
6.55343	  0.057925	  0.217420	  0.451268	
6.58669	  0.058046	  0.219247	  0.451654	
6.61996	  0.057841	  0.218669	  0.449673	
6.65323	  0.057073	  0.215234	  0.444914	
6.68649	  0.055743	  0.209375	  0.437828	
6.71976	  0.054147	  0.202254	  0.429250	
6.75302	  0.052723	  0.195281	  0.420034	
6.78629	  0.051827	  0.189691	  0.410952	
6.81956	  0.051610	  0.186401	  0.402690	
6.85282	  0.052050	  0.186001	  0.395746	
6.88609	  0.053042	  0.188670	  0.390282	
6.91935	  0.054435	  0.194014	  0.386203	
6.95262	  0.056009	  0.201031	  0.383549	
6.98589	  0.057476	  0.208381	  0.382927	
7.01915	  0.058597	  0.214859	  0.385432	
7.05242	  0.059311	  0.219835	  0.391944	
7.08569	  0.059786	  0.223447	  0.402395	
7.11895	  0.060304	  0.226446	  0.415678	
7.15222	  0.061068	  0.229736	  0.430188	
7.18548	  0.062060	  0.233748	  0.444274	
7.21875	  0.063038	  0.237989	  0.456210	
7.25202	  0.063668	  0.241231	  0.464105	
7.28528	  0.063736	  0.242423	  0.466353	
7.31855	  0.063302	  0.241739	  0.462508	
7.35181	  0.062702	  0.240849	  0.453879	
7.38508	  0.062373	  0.242014	  0.443379	
7.41835	  0.062601	  0.246620	  0.434732	
7.45161	  0.063357	  0.254234	  0.431420	
7.48488	  0.064333	  0.262863	  0.435733	
7.51815	  0.065138	  0.270087	  0.448279	
7.55141	  0.065493	  0.274124	  0.468277	
7.58468	  0.065296	  0.274113	  0.494464	
7.61794	  0.064565	  0.269751	  0.525662	
7.65121	  0.063361	  0.260994	  0.560163	
7.68448	  0.061769	  0.248273	  0.594411	
7.71774	  0.059923	  0.232879	  0.622800	
7.75101	  0.058000	  0.216872	  0.639830	
7.78427	  0.056184	  0.202379	  0.643187	
7.81754	  0.054631	  0.190846	  0.634733	
7.85081	  0.053451	  0.182861	  0.618253	
7.88407	  0.052716	  0.178556	  0.596360	
7.91734	  0.052459	  0.178119	  0.569764	
7.9506	  0.052685	  0.181903	  0.539103	
7.98387	  0.053373	  0.190064	  0.506678	
8.01714	  0.054473	  0.202080	  0.475983	
8.0504	  0.055895	  0.216586	  0.449850	
8.08367	  0.057505	  0.231702	  0.429437	
8.11694	  0.059121	  0.245605	  0.414907	
8.1502	  0.060520	  0.256907	  0.406612	
8.18347	  0.061459	  0.264669	  0.405203	
8.21673	  0.061732	  0.268244	  0.410577	
8.25	  0.061260	  0.267322	  0.420946	
8.28327	  0.060145	  0.262277	  0.433169	
8.31653	  0.058666	  0.254443	  0.444122	
8.3498	  0.057187	  0.245847	  0.451931	
8.38306	  0.056039	  0.238363	  0.456251	
8.41633	  0.055443	  0.232895	  0.457847	
8.4496	  0.055501	  0.229249	  0.458187	
8.48286	  0.056220	  0.226717	  0.459262	
8.51613	  0.057521	  0.224688	  0.463232	
8.5494	  0.059196	  0.222704	  0.471651	
8.58266	  0.060867	  0.220116	  0.484642	
8.61593	  0.062055	  0.215984	  0.500674	
8.64919	  0.062365	  0.209542	  0.517194	
8.68246	  0.061698	  0.200837	  0.531649	
8.71573	  0.060306	  0.190878	  0.542198	
8.74899	  0.058671	  0.181181	  0.547831	
8.78226	  0.057274	  0.173157	  0.548178	
8.81552	  0.056405	  0.167842	  0.543347	
8.84879	  0.056095	  0.165944	  0.533905	
8.88206	  0.056176	  0.167905	  0.520977	
8.91532	  0.056424	  0.173753	  0.506377	
8.94859	  0.056675	  0.182913	  0.492569	
8.98185	  0.056850	  0.194236	  0.482113	
9.01512	  0.056918	  0.206281	  0.476651	
9.04839	  0.056839	  0.217599	  0.476058	
9.08165	  0.056548	  0.226755	  0.478514	
9.11492	  0.055980	  0.232226	  0.481541	
9.14819	  0.055113	  0.232569	  0.483222	
9.18145	  0.053998	  0.227070	  0.482729	
9.21472	  0.052762	  0.216425	  0.479996	
9.24798	  0.051581	  0.202786	  0.475110	
9.28125	  0.050604	  0.188954	  0.468071	
9.31452	  0.049894	  0.177299	  0.459119	
9.34778	  0.049443	  0.169238	  0.449254	
9.38105	  0.049281	  0.165508	  0.440447	
9.41431	  0.049563	  0.166683	  0.435141	
9.44758	  0.050520	  0.173169	  0.435121	
9.48085	  0.052264	  0.184562	  0.440397	
9.51411	  0.054606	  0.199050	  0.448925	
9.54738	  0.057050	  0.213596	  0.457466	
9.58065	  0.058964	  0.224918	  0.462993	
9.61391	  0.059825	  0.230694	  0.463739	
9.64718	  0.059423	  0.230423	  0.459437	
9.68044	  0.057968	  0.225715	  0.450939	
9.71371	  0.056052	  0.219815	  0.439764	
9.74698	  0.054420	  0.216307	  0.427889	
9.78024	  0.053672	  0.217513	  0.417655	
9.81351	  0.054030	  0.223582	  0.411346	
9.84677	  0.055322	  0.232810	  0.410231	
9.88004	  0.057108	  0.242703	  0.413572	
9.91331	  0.058856	  0.250825	  0.418582	
9.94657	  0.060071	  0.255095	  0.421832	
9.97984	  0.060392	  0.253936	  0.421322	
10.0131	  0.059653	  0.246701	  0.417663	
10.0464	  0.057920	  0.234176	  0.413415	
10.0796	  0.055467	  0.218574	  0.411172	
10.1129	  0.052679	  0.202749	  0.411838	
10.1462	  0.049906	  0.189025	  0.414034	
10.1794	  0.047317	  0.178367	  0.414634	
10.2127	  0.044877	  0.170338	  0.410004	
10.246	  0.042424	  0.163668	  0.397472	
10.2792	  0.039814	  0.156887	  0.376381	
10.3125	  0.037035	  0.148697	  0.348119	
10.3458	  0.034258	  0.138173	  0.315114	
10.379	  0.031832	  0.124981	  0.279533	
10.4123	  0.030193	  0.109529	  0.242614	
10.4456	  0.029699	  0.092865	  0.205010	
10.4788	  0.030438	  0.076323	  0.167697	
10.5121	  0.032124	  0.061148	  0.132595	
10.5454	  0.034127	  0.048265	  0.102306	
10.5786	  0.035644	  0.038161	  0.079117	
10.6119	  0.035910	  0.030804	  0.064015	
10.6452	  0.034366	  0.025665	  0.056344	
10.6784	  0.030778	  0.021936	  0.054212	
10.7117	  0.025291	  0.018872	  0.055315	
10.745	  0.018400	  0.016037	  0.057760	
10.7782	  0.010839	  0.013329	  0.060535	
